<svg width="56" height="56" viewBox="0 0 56 56" fill="none" xmlns="http://www.w3.org/2000/svg">
<rect width="56" height="56" rx="28" fill="#F7D8D4"/>
<path d="M29.9016 32C25.3424 32 21.2879 34.0408 18.7067 37.208C18.1511 37.8896 17.8733 38.2304 17.8824 38.691C17.8894 39.0469 18.1305 39.4959 18.4325 39.7156C18.8234 40 19.3652 40 20.4487 40H39.3545C40.4379 40 40.9797 40 41.3706 39.7156C41.6726 39.4959 41.9137 39.0469 41.9207 38.691C41.9298 38.2304 41.652 37.8896 41.0964 37.208C38.5152 34.0408 34.4607 32 29.9016 32Z" stroke="black" stroke-width="2" stroke-linecap="round" stroke-linejoin="round"/>
<path d="M29.9016 28C33.4759 28 36.3734 25.3137 36.3734 22C36.3734 18.6863 33.4759 16 29.9016 16C26.3272 16 23.4297 18.6863 23.4297 22C23.4297 25.3137 26.3272 28 29.9016 28Z" stroke="black" stroke-width="2" stroke-linecap="round" stroke-linejoin="round"/>
</svg>
