<svg width="56" height="56" viewBox="0 0 56 56" fill="none" xmlns="http://www.w3.org/2000/svg">
<rect width="56" height="56" rx="28" fill="#F7D8D4"/>
<path d="M6.85156 27.3281C6.85156 26.2135 7.08333 25.1745 7.54688 24.2109C8.01562 23.2422 8.6875 22.5234 9.5625 22.0547C10.4375 21.5859 11.4453 21.3516 12.5859 21.3516C13.4141 21.3516 14.1615 21.487 14.8281 21.7578C15.5 22.0234 16.026 22.3958 16.4062 22.875C16.7865 23.3542 17.0755 23.9792 17.2734 24.75L15.9062 25.125C15.7344 24.5417 15.5208 24.0833 15.2656 23.75C15.0104 23.4167 14.6458 23.151 14.1719 22.9531C13.6979 22.75 13.1719 22.6484 12.5938 22.6484C11.901 22.6484 11.3021 22.7552 10.7969 22.9688C10.2917 23.1771 9.88281 23.4531 9.57031 23.7969C9.26302 24.1406 9.02344 24.5182 8.85156 24.9297C8.5599 25.638 8.41406 26.4062 8.41406 27.2344C8.41406 28.2552 8.58854 29.1094 8.9375 29.7969C9.29167 30.4844 9.80469 30.9948 10.4766 31.3281C11.1484 31.6615 11.862 31.8281 12.6172 31.8281C13.2734 31.8281 13.9141 31.7031 14.5391 31.4531C15.1641 31.1979 15.638 30.9271 15.9609 30.6406V28.5078H12.5938V27.1641L17.4453 27.1562V31.4062C16.7005 32 15.9323 32.4479 15.1406 32.75C14.349 33.0469 13.5365 33.1953 12.7031 33.1953C11.5781 33.1953 10.5547 32.9557 9.63281 32.4766C8.71615 31.9922 8.02344 31.2943 7.55469 30.3828C7.08594 29.4714 6.85156 28.4531 6.85156 27.3281ZM19.7188 33V21.5469H28V22.8984H21.2344V26.4062H27.5703V27.75H21.2344V31.6484H28.2656V33H19.7188ZM29.8984 27.4219C29.8984 25.5208 30.4089 24.0339 31.4297 22.9609C32.4505 21.8828 33.7682 21.3438 35.3828 21.3438C36.4401 21.3438 37.3932 21.5964 38.2422 22.1016C39.0911 22.6068 39.737 23.3125 40.1797 24.2188C40.6276 25.1198 40.8516 26.1432 40.8516 27.2891C40.8516 28.4505 40.6172 29.4896 40.1484 30.4062C39.6797 31.3229 39.0156 32.0182 38.1562 32.4922C37.2969 32.9609 36.3698 33.1953 35.375 33.1953C34.2969 33.1953 33.3333 32.9349 32.4844 32.4141C31.6354 31.8932 30.9922 31.1823 30.5547 30.2812C30.1172 29.3802 29.8984 28.4271 29.8984 27.4219ZM31.4609 27.4453C31.4609 28.8255 31.8307 29.9141 32.5703 30.7109C33.3151 31.5026 34.2474 31.8984 35.3672 31.8984C36.5078 31.8984 37.4453 31.4974 38.1797 30.6953C38.9193 29.8932 39.2891 28.7552 39.2891 27.2812C39.2891 26.349 39.1302 25.5365 38.8125 24.8438C38.5 24.1458 38.0391 23.6068 37.4297 23.2266C36.8255 22.8411 36.1458 22.6484 35.3906 22.6484C34.3177 22.6484 33.3932 23.0182 32.6172 23.7578C31.8464 24.4922 31.4609 25.7214 31.4609 27.4453Z" fill="#13264E"/>
<path d="M48.5 27.134C49.1667 27.5189 49.1667 28.4811 48.5 28.866L45.5 30.5981C44.8333 30.983 44 30.5019 44 29.7321L44 26.2679C44 25.4981 44.8333 25.017 45.5 25.4019L48.5 27.134Z" fill="#13264E"/>
</svg>
