<svg width="56" height="56" viewBox="0 0 56 56" fill="none" xmlns="http://www.w3.org/2000/svg">
<rect width="56" height="56" rx="28" fill="#F7D8D4"/>
<path d="M28.16 39.1172L28 39.2916L27.824 39.1172C20.224 31.6011 15.2 26.6311 15.2 21.5913C15.2 18.1035 17.6 15.4877 20.8 15.4877C23.264 15.4877 25.664 17.2316 26.512 19.6033H29.488C30.336 17.2316 32.736 15.4877 35.2 15.4877C38.4 15.4877 40.8 18.1035 40.8 21.5913C40.8 26.6311 35.776 31.6011 28.16 39.1172ZM35.2 12C32.416 12 29.744 13.4125 28 15.6272C26.256 13.4125 23.584 12 20.8 12C15.872 12 12 16.2027 12 21.5913C12 28.1657 17.44 33.5542 25.68 41.6981L28 44L30.32 41.6981C38.56 33.5542 44 28.1657 44 21.5913C44 16.2027 40.128 12 35.2 12Z" fill="#13264E"/>
</svg>
